<svg xmlns="http://www.w3.org/2000/svg" xmlns:xlink="http://www.w3.org/1999/xlink" width="1062.221" height="152.371" viewBox="0 0 1062.221 152.371">
  <defs>
    <clipPath id="clip-path">
      <rect id="Rectángulo_3" data-name="Rectángulo 3" width="1062.221" height="152.371" fill="#fff"/>
    </clipPath>
  </defs>
  <g id="Grupo_408" data-name="Grupo 408" transform="translate(0 0)">
    <g id="Grupo_3" data-name="Grupo 3" transform="translate(0 0)" clip-path="url(#clip-path)">
      <path id="Trazado_29" data-name="Trazado 29" d="M340.251,36.676V46.2a1.68,1.68,0,0,0,.636,1.527l4.951,5.016v.128H322.021v-.128l3.492-4.574a2,2,0,0,0,.51-1.651V14.573a2,2,0,0,0-.51-1.651l-3.492-4.574V8.22h23.628c8.895,0,18.546,2.86,18.546,13.467,0,10.734-8,14.989-20.513,14.989Zm0-1.333h2.1c5.332,0,7.114-6.162,7.114-13.212,0-6.669-1.843-12.576-6.162-12.576h-1.971c-.95,0-1.076.063-1.076,1.143Z" transform="translate(334.346 8.536)" fill="#fff"/>
      <path id="Trazado_30" data-name="Trazado 30" d="M356.169,29.953c.255,7.432,4.384,9.908,9.019,9.908,3.43,0,7.37-1.525,9.339-4.888l.124.061c-1.775,8.259-7.109,12.007-14.989,12.007-8.573,0-16.83-4.892-16.83-16.2,0-11.563,7.556-16.516,17.34-16.516,7.05,0,14.926,2.923,14.926,14.292a10.349,10.349,0,0,1-.063,1.333Zm0-1.2h7.179c.065-1.019.065-2.034.065-2.925,0-9.015-1.714-10.226-3.5-10.226-2.409,0-3.748,2.289-3.748,13.151" transform="translate(355.954 14.877)" fill="#fff"/>
      <path id="Trazado_31" data-name="Trazado 31" d="M396.783,43.293l2.477,3.112v.126h-18.8v-.126l2.413-3.112a1.951,1.951,0,0,0,.508-1.59c0-1.27.19-9.209.19-12.511,0-4.637-.51-8.767-4.509-8.767A4.488,4.488,0,0,0,375.44,22.2V41.7a1.945,1.945,0,0,0,.51,1.59l2.477,3.112v.126H359.688v-.126l2.415-3.112a1.943,1.943,0,0,0,.506-1.59V19.726a1.943,1.943,0,0,0-.506-1.588l-2.415-3.174v-.128H375.44v6.414a10.708,10.708,0,0,1,10.481-6.922c6.863,0,10.546,5.016,10.546,13.783,0,4.382-.128,8.575-.192,13.591a1.944,1.944,0,0,0,.508,1.59" transform="translate(373.454 14.878)" fill="#fff"/>
      <path id="Trazado_32" data-name="Trazado 32" d="M395.816,48.369a1.94,1.94,0,0,0,.508,1.588l2.479,3.112V53.2h-18.74v-.126l2.417-3.112a1.945,1.945,0,0,0,.506-1.588V26.392a1.948,1.948,0,0,0-.506-1.588l-2.417-3.176V21.5h15.754ZM383.492,13.435c0-3.492,2.8-5.526,5.907-5.526,3.241,0,5.907,2.034,5.907,5.526,0,3.365-2.666,5.271-5.907,5.271-3.11,0-5.907-1.906-5.907-5.271" transform="translate(394.608 8.213)" fill="#fff"/>
      <path id="Trazado_33" data-name="Trazado 33" d="M427.563,43.293l2.479,3.112v.126h-18.8v-.126l2.413-3.112a1.951,1.951,0,0,0,.508-1.59c0-1.27.19-9.209.19-12.511,0-4.637-.51-8.767-4.509-8.767A4.487,4.487,0,0,0,406.22,22.2V41.7a1.945,1.945,0,0,0,.51,1.59l2.477,3.112v.126H390.468v-.126l2.415-3.112a1.943,1.943,0,0,0,.505-1.59V19.726a1.943,1.943,0,0,0-.505-1.588l-2.415-3.174v-.128H406.22v6.414A10.708,10.708,0,0,1,416.7,14.329c6.863,0,10.546,5.016,10.546,13.783,0,4.382-.128,8.575-.192,13.591a1.944,1.944,0,0,0,.508,1.59" transform="translate(405.412 14.878)" fill="#fff"/>
      <path id="Trazado_34" data-name="Trazado 34" d="M422.438,36.559,417.99,34.4c-3.555-1.714-6.349-4.7-6.349-9.462,0-6.225,4.829-10.609,14.419-10.609a48.484,48.484,0,0,1,12.134,1.714l-4.258,9.91h-.126l-5.4-9.464c-.381-.636-.571-.828-.952-.891a5.5,5.5,0,0,0-1.017-.063c-2.666,0-4.829,1.143-4.829,3.812,0,2.6,2.034,4.064,6.353,5.97l3.938,1.716c4.066,1.777,6.987,3.938,6.987,8.954,0,7.052-5.781,11.054-15.5,11.054a40.551,40.551,0,0,1-12.7-2.032l4-10.354h.128l5.972,10.418a1.274,1.274,0,0,0,1.017.7,8.1,8.1,0,0,0,1.2.063c3.3,0,5.654-1.4,5.654-4,0-2.032-1.461-3.047-6.227-5.271" transform="translate(426.407 14.877)" fill="#fff"/>
      <path id="Trazado_35" data-name="Trazado 35" d="M428.343,33.314c0-4.509.065-8.765.192-13.909a1.946,1.946,0,0,0-.508-1.588L425.549,14.7v-.126H441.24V32.236c0,4.509.381,8.447,3.812,8.447a4.669,4.669,0,0,0,3.618-1.777V19.468a1.929,1.929,0,0,0-.51-1.588L445.748,14.7v-.126h15.817V41.444a1.938,1.938,0,0,0,.505,1.588l2.477,3.112v.126H448.669V39.92a10.843,10.843,0,0,1-9.971,6.861c-6.861,0-10.354-4.892-10.354-13.467" transform="translate(441.836 15.137)" fill="#fff"/>
      <path id="Trazado_36" data-name="Trazado 36" d="M461.366,49.016a1.94,1.94,0,0,0,.508,1.59l2.479,3.11v.128H445.614v-.128l2.411-3.11a1.934,1.934,0,0,0,.51-1.59V14.082a1.927,1.927,0,0,0-.51-1.588l-2.411-3.176V9.192l15.752-1.906Z" transform="translate(462.669 7.566)" fill="#fff"/>
      <path id="Trazado_37" data-name="Trazado 37" d="M473.616,22.649v-.381c0-4.066-.952-6.669-3.492-6.669-1.017,0-1.143.063-1.459.634l-5.909,10.228h-.126l-4.574-9.529a43.278,43.278,0,0,1,13.972-2.6c4.574,0,8.385.823,10.862,3.11,2.161,1.969,3.367,5.018,3.367,9.655,0,.826-.065,1.525-.065,1.716l-.508,9.59c-.128,2.413.446,3.43,1.464,3.43a1.725,1.725,0,0,0,1.523-.826h.126a4.152,4.152,0,0,1-.508,2.54c-1.27,2.159-3.62,3.494-7.048,3.494-4,0-7.5-2.222-7.876-5.844a9.161,9.161,0,0,1-8.767,5.844c-4.766,0-8.83-3.176-8.83-9.274,0-6.414,5.589-9.782,10.862-9.782,3.047,0,5.271.446,6.859,1.588Zm-5.907,13.783c0,3.62,1.337,5.334,3.178,5.334a3.222,3.222,0,0,0,2.413-1.333l.19-10.163a6.944,6.944,0,0,0-1.651-.19c-2.6,0-4.13,2.6-4.13,6.351" transform="translate(473.212 14.878)" fill="#fff"/>
      <path id="Trazado_38" data-name="Trazado 38" d="M322.021,90.134l3.492-4.574a2,2,0,0,0,.508-1.651V51.959a2,2,0,0,0-.508-1.651l-3.492-4.574v-.126H344.7c15.179,0,22.611,8.449,22.611,21.151,0,15.371-9.148,23.5-24.39,23.5h-20.9Zm20.642-1.207c7.621,0,8.512-8.512,8.512-21.025,0-12.323-.891-20.962-8.512-20.962H341.33c-.952,0-1.08.061-1.08,1.146v39.7c0,1.08.128,1.143,1.08,1.143Z" transform="translate(334.346 47.355)" fill="#fff"/>
      <path id="Trazado_39" data-name="Trazado 39" d="M359,67.34c.255,7.432,4.384,9.908,9.019,9.908,3.43,0,7.368-1.525,9.337-4.89l.126.063c-1.775,8.257-7.112,12.005-14.99,12.005-8.573,0-16.83-4.892-16.83-16.2,0-11.561,7.556-16.514,17.34-16.514,7.05,0,14.926,2.921,14.926,14.292a10.047,10.047,0,0,1-.065,1.333Zm0-1.207h7.179c.065-1.017.065-2.032.065-2.923,0-9.017-1.716-10.226-3.5-10.226-2.411,0-3.748,2.287-3.748,13.149" transform="translate(358.897 53.695)" fill="#fff"/>
      <path id="Trazado_40" data-name="Trazado 40" d="M372.633,83.66l-7.368-22.8c-.569-1.716-.952-2.794-1.521-4.193l-1.969-4.572v-.128h17.592v.128l-1.653,4a2,2,0,0,0-.126,1.588l5.652,18.675,3.938-12.007a2.808,2.808,0,0,0-.061-2.666l-3.812-9.59v-.128h11.5v.128l-4.763,9.081a22.293,22.293,0,0,0-1.588,3.43L382.227,83.66Z" transform="translate(375.621 53.955)" fill="#fff"/>
      <path id="Trazado_41" data-name="Trazado 41" d="M391.031,67.34c.255,7.432,4.384,9.908,9.019,9.908,3.43,0,7.368-1.525,9.337-4.89l.126.063c-1.775,8.257-7.112,12.005-14.989,12.005-8.573,0-16.83-4.892-16.83-16.2,0-11.561,7.556-16.514,17.34-16.514,7.05,0,14.926,2.921,14.926,14.292a10.047,10.047,0,0,1-.065,1.333Zm0-1.207h7.179c.065-1.017.065-2.032.065-2.923,0-9.017-1.716-10.226-3.5-10.226-2.411,0-3.748,2.287-3.748,13.149" transform="translate(392.15 53.695)" fill="#fff"/>
      <path id="Trazado_42" data-name="Trazado 42" d="M410.084,86.4a1.934,1.934,0,0,0,.51,1.59l2.477,3.11v.128H394.332V91.1l2.411-3.11a1.934,1.934,0,0,0,.51-1.59V51.469a1.927,1.927,0,0,0-.51-1.588l-2.411-3.176v-.126l15.752-1.906Z" transform="translate(409.424 46.384)" fill="#fff"/>
      <path id="Trazado_43" data-name="Trazado 43" d="M404.332,67.976c0-10.862,7.368-16.261,18.23-16.261s18.23,5.273,18.23,16.453c0,10.86-7.368,16.259-18.23,16.259s-18.23-5.273-18.23-16.451m14.227,0c0,13.02,1.461,15.179,4,15.179s4-1.969,4-14.987-1.459-15.183-4-15.183-4,1.969-4,14.991" transform="translate(419.807 53.695)" fill="#fff"/>
      <path id="Trazado_44" data-name="Trazado 44" d="M425.824,57.115a1.927,1.927,0,0,0-.51-1.588L422.9,52.352v-.128h15.752v6.414c2.1-4.7,5.846-6.922,10.036-6.922,7.114,0,12.574,5.781,12.574,15.752,0,10.163-6.223,16.96-14.225,16.96-4.509,0-7.368-1.588-8.385-4.574v13.21c0,.891.061,1.017.952,1.779l4.13,3.43V98.4H422.9v-.126l2.411-3.112a1.927,1.927,0,0,0,.51-1.588Zm12.831,2.477v19.69a5.072,5.072,0,0,0,2.986.828c2.224,0,6.1-2.6,6.1-12.069,0-8-2.159-10.226-5.461-10.226a4.58,4.58,0,0,0-3.622,1.777" transform="translate(439.089 53.696)" fill="#fff"/>
      <path id="Trazado_45" data-name="Trazado 45" d="M479.936,80.68l2.477,3.112v.126h-18.8v-.126l2.413-3.112a1.951,1.951,0,0,0,.508-1.59c0-1.27.19-9.209.19-12.511,0-4.637-.51-8.767-4.509-8.767a4.487,4.487,0,0,0-3.622,1.779v19.5a1.945,1.945,0,0,0,.51,1.59l2.477,3.112v.126H442.842v-.126l2.415-3.112a1.943,1.943,0,0,0,.505-1.59V57.113a1.943,1.943,0,0,0-.505-1.588l-2.415-3.174v-.128h15.752v6.414a10.708,10.708,0,0,1,10.481-6.922c4.894,0,8.2,2.6,9.655,7.3a12.092,12.092,0,0,1,11.052-7.3c6.859,0,10.546,5.016,10.546,13.783,0,4.382-.126,8.575-.192,13.591a1.951,1.951,0,0,0,.508,1.59l2.479,3.112v.126h-18.8v-.126l2.415-3.112a1.951,1.951,0,0,0,.508-1.59c0-1.27.19-9.209.19-12.511,0-4.637-.51-8.767-4.509-8.767a6.272,6.272,0,0,0-4,1.906,22.784,22.784,0,0,1,.7,5.781c0,4.382-.128,8.575-.194,13.591a1.945,1.945,0,0,0,.51,1.59" transform="translate(459.791 53.696)" fill="#fff"/>
      <path id="Trazado_46" data-name="Trazado 46" d="M486.616,67.34c.255,7.432,4.384,9.908,9.019,9.908,3.43,0,7.368-1.525,9.337-4.89l.126.063c-1.775,8.257-7.111,12.005-14.989,12.005-8.573,0-16.83-4.892-16.83-16.2,0-11.561,7.556-16.514,17.34-16.514,7.05,0,14.926,2.921,14.926,14.292a10.047,10.047,0,0,1-.065,1.333Zm0-1.207H493.8c.065-1.017.065-2.032.065-2.923,0-9.017-1.716-10.226-3.5-10.226-2.411,0-3.748,2.287-3.748,13.149" transform="translate(491.394 53.695)" fill="#fff"/>
      <path id="Trazado_47" data-name="Trazado 47" d="M527.229,80.68l2.479,3.112v.126h-18.8v-.126l2.413-3.112a1.95,1.95,0,0,0,.508-1.59c0-1.27.19-9.209.19-12.511,0-4.637-.51-8.767-4.509-8.767a4.487,4.487,0,0,0-3.622,1.779v19.5a1.945,1.945,0,0,0,.51,1.59l2.477,3.112v.126H490.134v-.126l2.415-3.112a1.943,1.943,0,0,0,.505-1.59V57.113a1.943,1.943,0,0,0-.505-1.588l-2.415-3.174v-.128h15.752v6.414a10.708,10.708,0,0,1,10.481-6.922c6.863,0,10.546,5.016,10.546,13.783,0,4.382-.128,8.575-.192,13.591a1.944,1.944,0,0,0,.507,1.59" transform="translate(508.893 53.696)" fill="#fff"/>
      <path id="Trazado_48" data-name="Trazado 48" d="M512.843,80.141V58.863h-2.925V57.53h2.544a2.539,2.539,0,0,0,2.159-.636L525.547,46.6h.126V57.53h7.114v1.333h-7.114V79.38c0,2.856,1.268,4.445,3.176,4.445A3.783,3.783,0,0,0,531.9,82.3l.128.063c-.636,3.494-3.43,7.368-10.1,7.368-6.1,0-9.083-3.367-9.083-9.592" transform="translate(529.434 48.39)" fill="#fff"/>
      <path id="Trazado_49" data-name="Trazado 49" d="M38.228,0,0,152.371H38.228L57.343,76.185,76.456,0Z" transform="translate(0 0.001)" fill="#fff"/>
      <path id="Trazado_50" data-name="Trazado 50" d="M47.247,0,66.362,76.185H28.132l9.557,38.093H75.917l9.557,38.093H123.7L85.475,0Z" transform="translate(29.209 0.001)" fill="#fff"/>
      <path id="Trazado_51" data-name="Trazado 51" d="M184.835,133.324,151.385,0H79.71V152.369h38.228V19.046l33.448,133.323h71.678V0H184.835Z" transform="translate(82.76 0.001)" fill="#fff"/>
      <path id="Trazado_52" data-name="Trazado 52" d="M231.185,0H192.957L154.73,152.371h38.228l9.557-38.093h38.228L250.3,76.185H212.07Z" transform="translate(160.651 0.001)" fill="#fff"/>
      <path id="Trazado_53" data-name="Trazado 53" d="M192.239,0l19.115,76.185,19.113,76.187H268.7L230.467,0Z" transform="translate(199.597 0.001)" fill="#fff"/>
      <path id="Trazado_54" data-name="Trazado 54" d="M234.439,0V152.371h38.228V0Z" transform="translate(243.411 0.001)" fill="#fff"/>
      <path id="Trazado_55" data-name="Trazado 55" d="M276.637,0V152.371h38.228V0Z" transform="translate(287.225 0.001)" fill="#fff"/>
      <path id="Trazado_56" data-name="Trazado 56" d="M253.194,28.033l9.557,38.093h38.228l-9.557-38.093Z" transform="translate(262.884 29.107)" fill="#fff"/>
    </g>
  </g>
</svg>
